# xmcd
#
# Track frame offsets: 
#        150
#        12751
#        23916
#        34100
#        42350
#        52343
#        62775
#        74082
#        84413
#        96638
#        108732
#
# Disc length: 1582 seconds
#
# Revision: 0
# Processed by: cddbd v1.5.2PL0 Copyright (c) Steve Scherf et al.
# Submitted via: ExactAudioCopy v0.99pb4
#
DISCID=a0062c0b
DTITLE=Johnny Cash - Johnny Cash and The Music That Inspired "Walk The L
DTITLE=ine"[CD2]
DYEAR=1900
DGENRE=Country
TTITLE0=I Walk The Line
TTITLE1=Cry, Cry, Cry
TTITLE2=Get Rhythm
TTITLE3=Your My Little Baby (Little Wooly Booger)
TTITLE4=Ballad Of A Teenage Queen
TTITLE5=There You Go
TTITLE6=Don't Make Me Go
TTITLE7=I Was There When It Happened
TTITLE8=Give My Love To Rose
TTITLE9=Home Of The Blues
TTITLE10=Hey Porter
EXTD=
EXTT0=
EXTT1=
EXTT2=
EXTT3=
EXTT4=
EXTT5=
EXTT6=
EXTT7=
EXTT8=
EXTT9=
EXTT10=
PLAYORDER=
